:SAMPLES-PER-SECOND 30
:FULLY-SPECIFIED
:DEGREES
1
root  -58.9746 41.1472 -26.9308 -2.88682 -4.4946 0.117844
RightUpLeg  -0.806857 -10.145 -8.11193
RightLeg  8.8793 -4.33377 2.20431
RightFoot  -4.08366 -0.122975 1.49935
RightToes  0.00048216 0.542163 -0.142577
Spine  6.16063 0.695389 -1.89138
Spine1  0.131137 0.686068 0.0545241
HEad  27.9642 -0.92486 0.207722
LeftShoulder1  0.792475 -1.55797 -8.06582
LeftArm  -20.38 18.5319 -8.86285
LeftForeArm  10.1152 -5.29294 -0.245363
LeftHand  -0.25398 0.0180481 5.50724
RightShoulder  0.777577 0.797624 10.8829
RightArm  -20.5511 -11.7042 8.55968
RightForeArm  -8.21804 7.20134 3.5778
RightHand  -5.77622 15.5884 -31.6198
LeftUpLeg  1.20469 4.55274 -0.724882
LeftLeg  6.79097 20.5171 -1.94366
LeftFoot  -7.40456 -0.026246 2.13223
LeftToes  1.06246e-005 4.65855e-005 -8.185e-006
2
root  -58.945 41.124 -26.8779 -3.14703 -4.56071 0.143443
RightUpLeg  -0.658698 -10.4733 -8.26413
RightLeg  9.31546 -3.97277 2.1122
RightFoot  -4.28138 -0.144626 1.87483
RightToes  0.00048216 0.542163 -0.142577
Spine  6.54019 0.745932 -1.81762
Spine1  0.248301 0.751889 -0.0460888
HEad  28.2507 -0.8159 0.265201
LeftShoulder1  0.806869 -1.49911 -8.5886
LeftArm  -21.2548 18.7316 -9.23424
LeftForeArm  10.4064 -6.20349 -0.0823072
LeftHand  -0.25398 0.0180481 5.50724
RightShoulder  0.825248 0.934132 11.4569
RightArm  -20.7245 -12.4177 9.06264
RightForeArm  -8.8885 7.59596 3.6182
RightHand  -5.82956 15.7225 -31.7033
LeftUpLeg  1.47418 4.72779 -0.760359
LeftLeg  7.08414 20.3878 -1.83302
LeftFoot  -7.8722 -0.00809253 1.84992
LeftToes  1.06246e-005 4.65855e-005 -8.185e-006
3
root  -58.8994 41.0549 -26.787 -3.65172 -4.71682 0.231244
RightUpLeg  -0.651992 -11.5571 -8.53135
RightLeg  10.681 -2.54882 1.79273
RightFoot  -5.0183 -0.179583 2.63968
RightToes  0.00048216 0.542163 -0.142577
Spine  7.26395 0.845803 -1.81828
Spine1  0.614997 0.856073 -0.18574
HEad  28.6382 -0.966243 0.306459
LeftShoulder1  0.891565 -1.56729 -10.1927
LeftArm  -22.5781 19.0606 -9.54161
LeftForeArm  10.7032 -7.86753 0.105348
LeftHand  -0.25398 0.0180481 5.50724
RightShoulder  0.9401 1.25131 12.7553
RightArm  -21.2214 -13.7253 10.2161
RightForeArm  -9.37845 8.20433 3.57122
RightHand  -5.56473 15.025 -31.3217
LeftUpLeg  1.85754 5.31246 -0.757597
LeftLeg  7.94307 19.8717 -1.64118
LeftFoot  -8.86863 0.0238519 1.3422
LeftToes  1.06246e-005 4.65855e-005 -8.185e-006
4
root  -58.8669 40.9321 -26.7116 -4.27444 -5.18472 0.469107
RightUpLeg  -1.39182 -13.2747 -8.72162
RightLeg  13.4194 0.0280958 1.1115
RightFoot  -6.02433 -0.200893 3.44432
RightToes  0.00048216 0.542163 -0.142577
Spine  8.28035 1.04784 -2.04708
Spine1  1.03374 1.04045 -0.424114
HEad  28.7968 -1.20588 0.349518
LeftShoulder1  1.04467 -1.80659 -12.5056
LeftArm  -23.6858 19.2704 -9.77255
LeftForeArm  10.9406 -9.26367 0.241387
LeftHand  -0.25398 0.0180481 5.50724
RightShoulder  1.13646 1.78947 14.6228
RightArm  -21.8102 -14.9826 11.6039
RightForeArm  -8.25003 8.55579 3.36324
RightHand  -5.33926 14.5742 -30.7733
LeftUpLeg  2.07096 6.25101 -0.762643
LeftLeg  9.46395 19.2826 -1.36669
LeftFoot  -10.1439 0.0522934 0.820486
LeftToes  1.06246e-005 4.65855e-005 -8.185e-006
5
root  -58.8504 40.7673 -26.6682 -5.01892 -6.12688 0.967699
RightUpLeg  -3.301 -13.7672 -8.93277
RightLeg  17.9884 1.28966 0.250885
RightFoot  -6.41562 -0.228232 4.27841
RightToes  0.00048216 0.542163 -0.142577
Spine  9.64413 1.40738 -2.52579
Spine1  1.38051 1.37664 -0.874387
HEad  28.6495 -1.2518 0.460525
LeftShoulder1  1.24237 -2.18701 -14.8822
LeftArm  -24.3477 19.3049 -10.4113
LeftForeArm  10.8898 -9.81229 0.329382
LeftHand  -0.25398 0.0180481 5.50724
RightShoulder  1.42945 2.54082 17.0037
RightArm  -22.1123 -15.8959 12.8651
RightForeArm  -5.30297 8.57005 3.09969
RightHand  -5.61977 15.865 -30.4459
LeftUpLeg  2.20856 7.22345 -0.969912
LeftLeg  11.3023 19.1604 -1.01418
LeftFoot  -11.4333 0.0689652 0.358218
LeftToes  1.06246e-005 4.65855e-005 -8.185e-006
6
root  -58.8395 40.5956 -26.6301 -5.88939 -7.2989 1.69299
RightUpLeg  -6.07753 -11.8365 -9.49684
RightLeg  23.9818 -0.513107 -0.486359
RightFoot  -5.61622 -0.303062 5.27028
RightToes  0.00048216 0.542163 -0.142577
Spine  11.1975 1.78392 -3.17698
Spine1  1.88006 1.7183 -1.37778
HEad  28.2951 -1.04576 0.510374
LeftShoulder1  1.53823 -2.84026 -17.5034
LeftArm  -24.2388 19.2144 -11.1858
LeftForeArm  10.256 -9.46901 0.300279
LeftHand  -0.25398 0.0180481 5.50724
RightShoulder  1.80582 3.40442 19.7051
RightArm  -22.2847 -16.4277 14.2445
RightForeArm  -2.16565 8.43444 2.88432
RightHand  -5.9855 17.5884 -30.0061
LeftUpLeg  2.53669 7.99391 -1.43988
LeftLeg  12.8624 19.5616 -0.646869
LeftFoot  -12.4697 0.0757618 0.0705558
LeftToes  1.06246e-005 4.65855e-005 -8.185e-006
7
root  -58.8361 40.4551 -26.5618 -6.72379 -8.24484 2.41426
RightUpLeg  -8.98699 -10.7989 -10.0726
RightLeg  29.7222 -1.50567 -1.14792
RightFoot  -4.11232 -0.419403 6.194
RightToes  0.00048216 0.542163 -0.142577
Spine  12.5966 1.93674 -3.84304
Spine1  2.75675 1.7999 -1.64431
HEad  27.8505 -0.489694 0.302435
LeftShoulder1  2.05966 -3.96931 -21.0545
LeftArm  -23.1136 18.9132 -11.2995
LeftForeArm  9.37801 -8.30204 0.0914496
LeftHand  -0.25398 0.0180481 5.50724
RightShoulder  2.23193 4.29115 22.3744
RightArm  -22.8053 -16.6397 16.2503
RightForeArm  -1.54392 8.25739 2.7476
RightHand  -5.66721 16.9703 -29.2473
LeftUpLeg  3.05859 8.60361 -1.96911
LeftLeg  13.8796 20.0326 -0.320392
LeftFoot  -13.1392 0.0807308 0.111841
LeftToes  1.06246e-005 4.65855e-005 -8.185e-006
8
root  -58.8529 40.3611 -26.4465 -7.26976 -8.74599 2.89391
RightUpLeg  -11.4746 -10.5758 -10.2805
RightLeg  33.3949 -1.11068 -1.02893
RightFoot  -3.02179 -0.499815 6.58715
RightToes  0.00048216 0.542163 -0.142577
Spine  13.6486 1.81376 -4.32573
Spine1  3.83173 1.5844 -1.66944
HEad  27.4171 0.386188 -0.173769
LeftShoulder1  2.83712 -5.4759 -25.3482
LeftArm  -21.3543 18.1803 -11.0132
LeftForeArm  8.73619 -6.4947 -0.274107
LeftHand  -0.25398 0.0180481 5.50724
RightShoulder  2.68403 5.15906 24.8552
RightArm  -23.6557 -16.743 18.8272
RightForeArm  -3.39831 8.00759 2.65686
RightHand  -4.96413 14.5322 -28.7967
LeftUpLeg  3.49442 9.07426 -2.31675
LeftLeg  14.5582 20.2348 -0.0208219
LeftFoot  -13.5663 0.0872906 0.305155
LeftToes  1.06246e-005 4.65855e-005 -8.185e-006
9
root  -58.8846 40.3275 -26.2863 -7.40597 -8.87747 3.00202
RightUpLeg  -13.3341 -10.975 -9.91805
RightLeg  33.9905 -0.274791 -0.452662
RightFoot  -2.73873 -0.513719 6.57407
RightToes  0.00048216 0.542163 -0.142577
Spine  14.4663 1.5395 -4.3617
Spine1  4.77728 1.26642 -1.62555
HEad  27.0336 1.07165 -0.686008
LeftShoulder1  3.70403 -6.9381 -29.3867
LeftArm  -19.9453 16.9006 -11.6205
LeftForeArm  8.15099 -4.68859 -0.698747
LeftHand  -0.25398 0.0180481 5.50724
RightShoulder  3.16634 5.9826 27.3463
RightArm  -24.3894 -16.9575 21.3972
RightForeArm  -4.77896 7.63828 2.54588
RightHand  -4.58618 13.0644 -28.7164
LeftUpLeg  3.76252 9.20729 -2.37123
LeftLeg  14.8684 20.2656 0.171632
LeftFoot  -13.7822 0.0887537 0.284321
LeftToes  1.06246e-005 4.65855e-005 -8.185e-006
10
root  -58.9238 40.3419 -26.0929 -7.22152 -8.74493 2.84642
RightUpLeg  -14.6059 -11.8639 -9.14363
RightLeg  31.7742 -0.419412 -0.50974
RightFoot  -2.91538 -0.499 6.494
RightToes  0.00048216 0.542163 -0.142577
Spine  15.2544 1.21765 -4.0515
Spine1  5.57076 0.945325 -1.53894
HEad  26.5652 1.12958 -1.06418
LeftShoulder1  4.51228 -8.10109 -32.8279
LeftArm  -19.5382 15.1511 -13.5509
LeftForeArm  7.55694 -3.69596 -1.04992
LeftHand  -0.25398 0.0180481 5.50724
RightShoulder  3.70834 6.79039 30.056
RightArm  -24.7554 -17.1718 23.5332
RightForeArm  -4.50833 7.11078 2.40765
RightHand  -4.51455 13.0173 -28.3643
LeftUpLeg  3.94206 8.94078 -2.22681
LeftLeg  14.7512 20.3195 0.170471
LeftFoot  -13.7422 0.0852021 0.129941
LeftToes  1.06246e-005 4.65855e-005 -8.185e-006
